<?xml version="1.0" encoding="UTF-8"?>
<svg width="20px" height="20px" viewBox="0 0 20 20" version="1.1" xmlns="http://www.w3.org/2000/svg" xmlns:xlink="http://www.w3.org/1999/xlink">
    <!-- Generator: Sketch 52.3 (67297) - http://www.bohemiancoding.com/sketch -->
    <title>icon/formatting/link/20</title>
    <desc>Created with Sketch.</desc>
    <defs>
        <path d="M18.275,4.225 C17.571368,3.51892056 16.615568,3.12204287 15.61875,3.12204287 C14.621932,3.12204287 13.666132,3.51892056 12.9625,4.225 L13.85,5.1125 C14.8285795,4.13392048 16.4151704,4.1339205 17.39375,5.11250003 C18.3723295,6.09107956 18.3723295,7.67767045 17.39375,8.65625 L12.39375,13.65625 C11.76072,14.28928 10.8380588,14.5365063 9.97332374,14.3048013 C9.10858872,14.0730962 8.43315379,13.3976613 8.20144874,12.5329263 C7.96974369,11.6681912 8.21697003,10.74553 8.85,10.1125 L9.7375,9.225 L8.85,8.3375 L7.9625,9.225 C6.49549363,10.6920064 6.49549363,13.0704936 7.9625,14.5375 C9.42950637,16.0045064 11.8079936,16.0045064 13.275,14.5375 L18.275,9.5375 C18.9810794,8.83386798 19.3779571,7.87806804 19.3779571,6.88125 C19.3779571,5.88443196 18.9810794,4.92863202 18.275,4.225 Z M2.6125,15.5125 C2.14114087,15.0433291 1.87614934,14.405682 1.87614934,13.740625 C1.87614934,13.075568 2.14114087,12.4379209 2.6125,11.96875 L7.6125,6.96875 C8.24552996,6.33572001 9.16819125,6.08849365 10.0329263,6.3201987 C10.8976613,6.55190374 11.5730963,7.22733869 11.8048013,8.09207372 C12.0365064,8.95680875 11.78928,9.87947004 11.15625,10.5125 L9.8125,11.875 L10.7,12.7625 L12.025,11.4375 C12.9751032,10.4873968 13.3461607,9.10259127 12.9983988,7.80472619 C12.6506369,6.50686111 11.6368889,5.49311309 10.3390238,5.14535119 C9.04115873,4.79758929 7.65635318,5.16864682 6.70625,6.11875 L1.70625,11.11875 C0.237517743,12.5874823 0.237517743,14.9687677 1.70625,16.4375 C3.17498226,17.9062323 5.55626774,17.9062323 7.025,16.4375 L6.15625,15.5125 C5.68707908,15.9838591 5.04943198,16.2488507 4.384375,16.2488507 C3.71931802,16.2488507 3.08167092,15.9838591 2.6125,15.5125 Z" id="path-1"></path>
    </defs>
    <g id="icon/formatting/link/20" stroke="none" stroke-width="1" fill="none" fill-rule="evenodd">
        <mask id="mask-2" fill="white">
            <use xlink:href="#path-1"></use>
        </mask>
        <use id="icon-color" fill="#000000" xlink:href="#path-1"></use>
    </g>
</svg>